<?xml version="1.0" standalone="no"?>
<!DOCTYPE svg PUBLIC "-//W3C//DTD SVG 20010904//EN"
 "http://www.w3.org/TR/2001/REC-SVG-20010904/DTD/svg10.dtd">
<svg version="1.0" xmlns="http://www.w3.org/2000/svg"
 width="4000.000000pt" height="4000.000000pt" viewBox="0 0 4000.000000 4000.000000"
 preserveAspectRatio="xMidYMid meet">

<g transform="translate(0.000000,4000.000000) scale(0.100000,-0.100000)"
fill="#fff" stroke="none">
<path d="M27175 35283 c-399 -24 -587 -45 -855 -94 -599 -111 -1094 -280
-1655 -564 -264 -134 -431 -233 -725 -428 -878 -586 -1656 -1286 -2295 -2065
l-140 -171 -4735 -3 c-5160 -5 -4800 -1 -5320 -58 -1000 -112 -1972 -425
-2828 -911 -612 -348 -1160 -774 -1692 -1316 -1346 -1371 -2063 -2971 -2202
-4918 -9 -118 -13 -385 -13 -770 3 -2581 332 -5174 981 -7715 124 -485 232
-865 749 -2635 515 -1764 1106 -3829 1640 -5735 218 -778 401 -1430 406 -1447
l11 -33 3354 0 3354 0 0 1665 0 1665 3105 0 3105 0 0 -1665 0 -1665 3332 2
3332 3 673 2220 c1528 5041 2054 6771 2061 6783 4 8 898 309 1987 671 1089
361 2094 695 2233 741 l252 85 0 4597 0 4598 -1433 0 -1432 0 -1980 1956
c-1089 1076 -2151 2126 -2360 2334 l-380 377 76 374 c250 1223 409 1825 658
2488 48 126 70 205 98 345 73 370 53 552 -81 754 -135 203 -424 415 -672 492
-141 43 -355 59 -609 43z m-545 -2006 c0 -1 -25 -77 -55 -167 -323 -962 -485
-1929 -485 -2899 l0 -316 2797 -2797 2798 -2798 893 0 892 0 -2 -3032 -3
-3032 -755 -259 c-1396 -479 -3393 -1167 -3395 -1169 -1 -2 -297 -982 -659
-2178 -361 -1196 -944 -3122 -1294 -4280 l-638 -2105 -1782 -3 -1782 -2 0
1665 0 1665 -4865 0 -4865 0 0 -1665 0 -1665 -1768 0 -1768 0 -91 318 c-50
174 -325 1134 -611 2132 -726 2531 -1533 5370 -1642 5775 -669 2496 -1007
5007 -1012 7535 -1 552 5 685 52 1052 81 630 280 1282 561 1838 391 775 1016
1523 1725 2067 801 615 1708 988 2724 1122 438 58 68 54 5807 60 l5262 6 98
150 c600 919 1399 1700 2318 2265 407 250 828 455 1330 646 173 65 215 79 215
71z"/>
<path d="M12880 26400 l0 -850 4435 0 4435 0 0 850 0 850 -4435 0 -4435 0 0
-850z"/>
<path d="M26235 24900 c-357 -32 -664 -182 -952 -467 -282 -279 -442 -608
-473 -973 -40 -462 131 -879 501 -1223 319 -295 647 -430 1049 -430 419 0 762
147 1076 461 319 319 466 653 466 1062 0 416 -145 753 -471 1091 -219 228
-430 359 -706 438 -132 37 -335 54 -490 41z"/>
</g>
</svg>
